<svg xmlns="http://www.w3.org/2000/svg" viewBox="0 0 512 512" width="512" height="512">
	<style>
		tspan { white-space:pre }
		.shp0 { fill: #000000 } 
	</style>
	<path id="Shape 2" class="shp0" d="M0,50v412c0,27.65 22.35,50 50,50h412c27.65,0 50,-22.35 50,-50v-412c0,-27.65 -22.35,-50 -50,-50h-412c-27.65,0 -50,22.35 -50,50z" />
	<path id="ZG " fill="#f4effb" d="M226.47 112.76L226.47 127.16Q226.47 133.76 222.47 139.96L60.27 367.76L224.07 367.76L224.07 399.36L9.27 399.36L9.27 384.16Q9.27 380.96 10.27 378.16Q11.47 375.36 13.07 372.76L175.67 144.36L16.87 144.36L16.87 112.76L226.47 112.76ZM414.27 261.56L502.27 261.56L502.27 371.56Q480.67 387.16 456.07 394.96Q431.67 402.56 402.47 402.56Q367.87 402.56 340.07 391.96Q312.27 381.16 292.47 361.96Q272.87 342.56 262.27 315.56Q251.67 288.56 251.67 256.16Q251.67 223.36 261.87 196.36Q272.27 169.36 291.27 150.16Q310.27 130.76 337.47 120.16Q364.67 109.56 398.27 109.56Q415.27 109.56 429.87 112.16Q444.47 114.56 456.87 119.36Q469.27 123.96 479.87 130.76Q490.47 137.36 499.67 145.76L488.67 163.36Q486.07 167.36 481.87 168.56Q477.87 169.56 472.87 166.56Q468.07 163.76 461.87 159.76Q455.67 155.76 446.67 152.16Q437.87 148.36 425.67 145.76Q413.67 143.16 397.07 143.16Q372.87 143.16 353.27 151.16Q333.67 158.96 319.87 173.76Q306.07 188.36 298.67 209.36Q291.27 230.16 291.27 256.16Q291.27 283.16 298.87 304.56Q306.67 325.76 320.87 340.76Q335.27 355.56 355.67 363.36Q376.07 371.16 401.47 371.16Q421.47 371.16 436.87 366.76Q452.47 362.16 467.27 354.16L467.27 291.16L422.67 291.16Q418.87 291.16 416.47 288.96Q414.27 286.76 414.27 283.56L414.27 261.56Z" />
</svg>